<svg
  t="1717047791225"
  class="icon"
  viewBox="0 0 1024 1024"
  version="1.1"
  xmlns="http://www.w3.org/2000/svg"
  p-id="2603"
  width="200"
  height="200"
>
  <path
    d="M450.934 1016.852h-330.2c-49.448 0-71.503-22.784-71.503-73.846V73.826C49.23 22.784 71.286 0 120.734 0h680.211c49.448 0 71.503 22.784 71.503 73.826V519.74l-57.679-31.468V73.826c0-7.108-0.453-11.185-0.866-13.39a70.971 70.971 0 0 0-12.977-0.886H120.734c-6.893 0-10.85 0.472-12.978 0.886a76.19 76.19 0 0 0-0.866 13.39v869.18c0 7.128 0.453 11.185 0.866 13.39 2.127 0.414 6.085 0.906 12.978 0.906h330.2v59.55z m0 0"
    p-id="2604"
  ></path>
  <path
    d="M713.433 183.04h-506.31c-12.268 0-22.212 12.78-22.212 25.442s9.944 25.443 22.213 25.443h506.328c12.269 0 22.213-12.78 22.213-25.443s-9.984-25.442-22.232-25.442z m22.193 189.834c0-12.662-9.964-25.443-22.213-25.443h-506.29c-12.268 0-22.212 12.8-22.212 25.443s9.944 25.442 22.213 25.442h506.328c12.23 0.02 22.174-12.78 22.174-25.442z m-528.522 138.93c-12.268 0-22.213 12.8-22.213 25.442 0 12.662 9.945 25.442 22.213 25.442h324.923c12.288 0 22.213-12.78 22.213-25.442s-9.945-25.443-22.213-25.443H207.104z m254.543 164.37H207.104c-12.268 0-22.213 12.781-22.213 25.443s9.945 25.443 22.213 25.443h254.543c12.268 0 22.213-12.78 22.213-25.443 0-12.642-9.945-25.442-22.213-25.442z m299.579-38.025c88.3 0 160.157 74.2 160.157 165.356 0 91.176-71.857 165.357-160.157 165.357-88.3 0-160.158-74.201-160.158-165.357-0.02-91.155 71.838-165.356 160.158-165.356m0-55.119c-117.996 0-213.563 98.659-213.563 220.475S643.23 1024 761.226 1024c117.976 0 213.543-98.678 213.543-220.495S879.202 583.03 761.226 583.03z m0 0"
    p-id="2605"
  ></path>
  <path
    d="M842.791 787.397h-92.908v-11.658a363.725 363.725 0 0 1-15.872 13.095 342.922 342.922 0 0 0-15.675-29.479h-13.588v16.128c10.693 8.743 21.19 17.763 31.311 27.136l-18.826 23.67a254.796 254.796 0 0 0-12.485-15.458v107.914h-28.81v-98.757a354.186 354.186 0 0 1-21.287 44.485 1124.982 1124.982 0 0 0-7.227-42.87 306.688 306.688 0 0 0 26.506-62.228h-24.28v-30.366h26.308v-40.27h28.81v40.27h23.355v22.902a214.745 214.745 0 0 0 53.74-63.625h36.254l-3.86 6.459c16.404 27.47 36.687 47.99 60.751 61.538l-16.542 29.223a212.382 212.382 0 0 1-15.675-11.224v13.115zM724.48 882.215h85.209c9.688-28.553 16.876-55.926 21.543-82.117l30.11 7.484a1616.896 1616.896 0 0 1-22.863 74.633h30.129v28.554H724.48v-28.554z m27.392-75.854a646.814 646.814 0 0 1 22.902 61.538l-26.722 9.157a532.598 532.598 0 0 0-20.638-60.908l24.458-9.787z m44.86-85.209a310.843 310.843 0 0 1-30.11 38.183h59.884a235.323 235.323 0 0 1-29.775-38.183z m2.54 74.22c6.006 21.386 10.909 42.358 14.69 62.937l-26.703 6.34a710.617 710.617 0 0 0-12.721-62.936l24.733-6.34z m0 0"
    p-id="2606"
  ></path>
</svg>
