<svg
  t="1717048237340"
  class="icon"
  viewBox="0 0 1024 1024"
  version="1.1"
  xmlns="http://www.w3.org/2000/svg"
  p-id="8676"
  width="200"
  height="200"
>
  <path
    d="M804.279874 439.601251c-46.65998 0-84.685964-26.128989-84.685963-59.722974s37.326984-59.722974 84.684963-59.722975a93.31696 93.31696 0 0 1 76.053968 33.127986 11.664995 11.664995 0 0 1-19.129992 13.297994 71.153969 71.153969 0 0 0-56.923976-23.329989c-33.126986 0-61.355974 16.796993-61.355973 36.393984s28.228988 36.393984 61.355973 36.393984a11.664995 11.664995 0 0 1 11.664995 11.663995 11.664995 11.664995 0 0 1-11.664995 11.897995z"
    p-id="8677"
  ></path>
  <path
    d="M800.079876 565.580197a90.749961 90.749961 0 0 1-79.085966-42.459982 11.664995 11.664995 0 0 1 4.664998-15.863993 11.664995 11.664995 0 0 1 15.863993 4.432998 66.721971 66.721971 0 0 0 58.556975 30.560987 58.789975 58.789975 0 0 0 64.154973-51.090978 58.789975 58.789975 0 0 0-64.154973-50.857978 11.664995 11.664995 0 0 1 0-23.32999 81.885965 81.885965 0 0 1 87.484963 74.187968 81.885965 81.885965 0 0 1-87.484963 74.419968z"
    p-id="8678"
  ></path>
  <path
    d="M511.963 1024l-150.006936-86.784963C144.294158 811.237091 24.38021 597.307183 24.38021 334.619296V156.850373L472.303017 7.076437a116.64595 116.64595 0 0 1 80.019966 0L999.544791 156.850373v177.769923c0 262.686887-119.911948 476.616795-337.574855 602.594741zM71.040189 190.444358V334.620296c0 248.689893 108.713953 443.25681 314.244865 562.235759l126.677946 73.253968 126.677946-73.253968C844.171857 777.876106 952.886811 583.310189 952.886811 334.620296V190.444358L537.624989 51.402418a69.98797 69.98797 0 0 0-49.223979 0z"
    p-id="8679"
  ></path>
  <path
    d="M194.218137 552.748202H150.360155a11.664995 11.664995 0 0 1-11.664995-11.663994V329.487298a11.664995 11.664995 0 0 1 11.664995-11.664995h43.859982a116.64595 116.64595 0 0 1 0 234.925899z m-32.193987-23.328989h32.193987a93.31696 93.31696 0 0 0 0-188.26692h-32.193987z m235.625899 23.329989h-44.559981a11.664995 11.664995 0 0 1-11.663995-11.664994V329.487298a11.664995 11.664995 0 0 1 11.664995-11.664995h44.558981a116.64595 116.64595 0 0 1 0 234.925899z m-32.194986-23.329989h32.194986a93.31696 93.31696 0 0 0 0-188.26692h-32.894986z m251.489892 24.495989a81.652965 81.652965 0 1 1 81.651965-81.652965 81.652965 81.652965 0 0 1-81.651965 81.652965z m0-139.97594a58.322975 58.322975 0 1 0 58.322975 58.322975 58.322975 58.322975 0 0 0-58.322975-58.322975z"
    p-id="8680"
  ></path>
</svg>
