<svg
  t="1717048296414"
  class="icon"
  viewBox="0 0 1024 1024"
  version="1.1"
  xmlns="http://www.w3.org/2000/svg"
  p-id="9722"
  width="200"
  height="200"
>
  <path
    d="M661.76 64c9.376 0 18.4 3.296 25.568 9.28l3.392 3.2 162.272 170.784c6.08 6.4 9.824 14.528 10.784 23.168l0.224 4.384V928a32 32 0 0 1-28.256 31.776L832 960H200a40 40 0 0 1-39.808-35.904L160 920V104c0-20.704 15.744-37.76 35.904-39.808L200 64h461.76z m-62.528 64H224v768h576V336h-168.736a32 32 0 0 1-31.936-29.6l-0.064-2.4-0.032-176z m-79.232 276a196 196 0 1 1 0 392 196 196 0 0 1 0-392z m0 56a140 140 0 1 0 0 280 140 140 0 0 0 0-280z m61.632 43.584l-4.128 16.96-2.4 9.6c-2.144 8.64-4.736 18.688-7.488 28.992l-3.36 12.416c-6.88 24.8-14.272 48.64-19.136 55.936a36.864 36.864 0 0 1-51.84 9.504c-17.344-11.904-22.176-35.392-10.816-52.512 11.328-17.12 99.168-80.896 99.168-80.896z m81.6-363.168V272h124.992l-124.992-131.584z"
    p-id="9723"
  ></path>
</svg>
