<svg
  t="1717048073485"
  class="icon"
  viewBox="0 0 1024 1024"
  version="1.1"
  xmlns="http://www.w3.org/2000/svg"
  p-id="5678"
  width="200"
  height="200"
>
  <path
    d="M512.179708 0a45.508603 45.508603 0 0 1 12.765164 1.820344l409.372639 119.596609a45.508603 45.508603 0 0 1 32.74344 43.688259v245.245862a644.106014 644.106014 0 0 1-440.63705 611.317065 45.508603 45.508603 0 0 1-28.761437 0A644.197031 644.197031 0 0 1 56.888889 410.237302v-245.13209a45.508603 45.508603 0 0 1 32.766194-43.688259l409.759462-119.596609a45.508603 45.508603 0 0 1 12.765163-1.820344z m363.864036 199.21391l-363.88679-106.285343-364.250859 106.285343v211.000638a552.610967 552.610967 0 0 0 364.068825 520.049562 552.588213 552.588213 0 0 0 364.068824-519.913036z"
    p-id="5679"
  ></path>
  <path
    d="M511.97492 523.348935m-113.771508 0a113.771508 113.771508 0 1 0 227.543015 0 113.771508 113.771508 0 1 0-227.543015 0Z"
    p-id="5680"
  ></path>
  <path
    d="M511.97492 500.594634a22.754302 22.754302 0 1 0 22.754301 22.754301 22.754302 22.754302 0 0 0-22.754301-22.754301m0-91.017206a113.771508 113.771508 0 1 1-113.771508 113.771507 113.771508 113.771508 0 0 1 113.771508-113.771507z"
    p-id="5681"
  ></path>
  <path
    d="M511.97492 358.084443a45.508603 45.508603 0 0 1-45.508603-45.508603v-200.237853a45.508603 45.508603 0 0 1 91.017206 0v200.237853a45.508603 45.508603 0 0 1-45.508603 45.508603z"
    p-id="5682"
  ></path>
  <path
    d="M511.97492 955.680665a45.508603 45.508603 0 0 1-45.508603-45.508603v-170.452473a45.508603 45.508603 0 0 1 91.017206 0V910.172062a45.508603 45.508603 0 0 1-45.508603 45.508603z"
    p-id="5683"
  ></path>
  <path
    d="M691.529113 513.632849a45.508603 45.508603 0 0 1 45.508603-45.508603h171.453662a45.508603 45.508603 0 0 1 0 91.017206h-171.453662a45.508603 45.508603 0 0 1-45.508603-45.508603z"
    p-id="5684"
  ></path>
  <path
    d="M69.927104 511.971785a45.508603 45.508603 0 0 1 45.508603-45.508603h170.86205a45.508603 45.508603 0 0 1 0 91.017206h-170.86205a45.508603 45.508603 0 0 1-45.508603-45.508603z"
    p-id="5685"
  ></path>
</svg>
