<svg
  t="1717048025130"
  class="icon"
  viewBox="0 0 1024 1024"
  version="1.1"
  xmlns="http://www.w3.org/2000/svg"
  p-id="5711"
  width="200"
  height="200"
>
  <path
    d="M204.8 508.586667H0c3.413333 88.746667 27.306667 167.253333 71.68 238.933333h170.666667c-20.48-71.68-34.133333-153.6-37.546667-238.933333zM477.866667 965.973333v-187.733333H290.133333c44.373333 109.226667 112.64 180.906667 187.733334 187.733333zM279.893333 747.52H477.866667v-238.933333H238.933333c3.413333 85.333333 17.066667 167.253333 40.96 238.933333zM238.933333 474.453333h238.933334v-238.933333H279.893333c-23.893333 68.266667-37.546667 150.186667-40.96 238.933333zM785.066667 474.453333h204.8c-3.413333-88.746667-27.306667-167.253333-71.68-238.933333h-170.666667c20.48 68.266667 34.133333 150.186667 37.546667 238.933333zM290.133333 201.386667H477.866667V13.653333c-75.093333 10.24-143.36 81.92-187.733334 187.733334zM242.346667 235.52h-170.666667C27.306667 307.2 3.413333 385.706667 0 474.453333h204.8c3.413333-88.746667 17.066667-170.666667 37.546667-238.933333zM512 13.653333v187.733334h184.32C655.36 95.573333 587.093333 23.893333 512 13.653333zM256 781.653333H95.573333c71.68 98.986667 184.32 174.08 310.613334 194.56-61.44-34.133333-116.053333-105.813333-150.186667-194.56zM781.653333 542.72h17.066667c54.613333 0 109.226667 17.066667 153.6 51.2 3.413333 3.413333 10.24 3.413333 17.066667 3.413333 6.826667-3.413333 10.24-6.826667 10.24-13.653333 3.413333-23.893333 6.826667-51.2 6.826666-75.093333h-204.8c3.413333 10.24 3.413333 23.893333 0 34.133333zM546.133333 798.72v-17.066667h-34.133333v187.733334c27.306667-3.413333 51.2-13.653333 75.093333-30.72-27.306667-44.373333-40.96-92.16-40.96-139.946667zM402.773333 3.413333c-126.293333 23.893333-235.52 95.573333-307.2 197.973334h160.426667c34.133333-92.16 88.746667-160.426667 146.773333-197.973334zM733.866667 201.386667h160.426666C822.613333 102.4 709.973333 27.306667 583.68 6.826667c61.44 34.133333 112.64 102.4 150.186667 194.56zM747.52 546.133333v-40.96h-238.933333v238.933334h40.96c20.48-95.573333 98.986667-174.08 197.973333-197.973334zM709.973333 235.52H512v238.933333h238.933333c-3.413333-88.746667-17.066667-170.666667-40.96-238.933333z"
    fill=""
    p-id="5712"
  ></path>
  <path
    d="M802.133333 576.853333c-122.88 0-221.866667 98.986667-221.866666 221.866667s98.986667 221.866667 221.866666 221.866667S1024 921.6 1024 798.72s-98.986667-221.866667-221.866667-221.866667z m10.24 334.506667c-3.413333 3.413333-6.826667 6.826667-13.653333 6.826667s-10.24-3.413333-13.653333-6.826667v-10.24c0-3.413333 3.413333-10.24 3.413333-10.24 6.826667-6.826667 17.066667-6.826667 23.893333 0 3.413333 3.413333 6.826667 6.826667 6.826667 13.653333s-3.413333 3.413333-6.826667 6.826667z m6.826667-78.506667c0 10.24-6.826667 17.066667-17.066667 17.066667s-17.066667-10.24-17.066666-17.066667v-170.666666c0-10.24 6.826667-17.066667 17.066666-17.066667s17.066667 6.826667 17.066667 17.066667v170.666666z"
    fill=""
    p-id="5713"
  ></path>
</svg>
