<svg
  t="1717047919258"
  class="icon"
  viewBox="0 0 1024 1024"
  version="1.1"
  xmlns="http://www.w3.org/2000/svg"
  p-id="3696"
  width="200"
  height="200"
>
  <path
    d="M128 864a32 32 0 0 0 32 32h329.344a287.968 287.968 0 0 1-43.328-64H192V416h640v30.016c23.168 11.52 44.704 26.08 64 43.328V160a32 32 0 0 0-32-32H160a32 32 0 0 0-32 32v704z m64-512V192h640v160H192z m153.6-83.2a44.8 44.8 0 1 1-89.6 0 44.8 44.8 0 0 1 89.6 0z m144 0a44.8 44.8 0 1 1-89.6 0 44.8 44.8 0 0 1 89.6 0z m26.048 534.528q31.008 60.48 90.368 93.504 59.36 33.056 127.104 27.584 67.712-5.504 120.96-47.68 53.28-42.24 74.112-106.88 20.864-64.672 2.24-130.048-18.56-65.344-70.368-109.344-51.776-44-119.264-51.84a219.296 219.296 0 0 0-128 23.168l28.64 55.84q43.52-22.336 92.16-16.704 48.576 5.632 85.856 37.312a157.92 157.92 0 0 1 50.656 78.72q13.408 47.072-1.6 93.632a157.888 157.888 0 0 1-53.344 76.96 157.888 157.888 0 0 1-87.136 34.336 157.888 157.888 0 0 1-91.52-19.84 157.888 157.888 0 0 1-65.024-67.36l-55.84 28.64z m-31.936-131.904a3.2 3.2 0 0 0 2.816-0.16l26.752-15.104 127.36 54.08a64 64 0 1 0 23.744-59.456l-126.08-53.536-7.744-29.728a3.2 3.2 0 0 0-1.856-2.144l-128.512-54.56a3.2 3.2 0 0 0-4.352 3.776l16.032 61.632a3.2 3.2 0 0 1-1.536 3.616l-55.488 31.296a3.2 3.2 0 0 0 0.32 5.76l128.544 54.528z"
    p-id="3697"
  ></path>
</svg>
