<svg
  t="1717048887882"
  class="icon"
  viewBox="0 0 1024 1024"
  version="1.1"
  xmlns="http://www.w3.org/2000/svg"
  p-id="19451"
  width="200"
  height="200"
>
  <path
    d="M462.848 109.568c6.144-10.752 17.92-17.408 30.208-17.408h43.52c12.288 0 24.064 6.656 30.208 17.92l82.944 145.408 79.872-46.08-109.568-191.488c-6.144-10.752-17.92-17.408-30.208-17.408L439.296 0c-12.288 0-24.064 6.656-30.208 17.408L292.352 216.576l79.872 47.104 90.624-154.112z m-204.8 379.392l5.12-116.224 97.792-61.952L25.088 235.52l232.96 253.44zM997.376 235.52l-336.384 74.752 98.304 61.952 5.12 116.224L997.376 235.52z m-394.24 495.616l-91.648 48.128-92.16-48.128 92.16 292.864 91.648-292.864z m271.36-263.168l-80.384 46.592 89.088 155.136c6.144 10.752 6.144 24.064 0 34.816l-22.016 37.376c-6.144 10.752-17.92 17.408-30.208 17.408h-167.424v91.648h221.184c12.288 0 24.064-6.656 30.208-17.408l74.752-130.56c6.144-10.752 6.144-24.064 0-34.816l-115.2-200.192zM159.232 741.888L126.976 686.08l98.816-170.496-80.384-46.592-114.688 199.68c-6.144 10.752-6.144 24.064 0 34.816l74.752 130.56c6.144 10.752 17.92 17.408 30.208 17.408h223.744v-91.648H189.44c-12.8 0-24.064-6.656-30.208-17.92z m261.632-342.016c0 49.152 39.936 89.088 89.088 89.088S599.04 449.536 599.04 399.872s-39.936-89.088-89.088-89.088-89.088 39.936-89.088 89.088z m-87.04 263.168h356.864c-2.56-96.256-81.92-173.568-178.688-173.568s-175.616 77.312-178.176 173.568z"
    p-id="19452"
  ></path>
</svg>
