<svg
  t="1717049001842"
  class="icon"
  viewBox="0 0 1024 1024"
  version="1.1"
  xmlns="http://www.w3.org/2000/svg"
  p-id="20573"
  width="200"
  height="200"
>
  <path
    d="M855.30560981 248.41598577l-36.6288412-42.37454181-135.74217626 117.06864938c-11.49140115-6.46391315-25.13744005-10.77318858-39.50169151-10.77318859-45.24739209 0-81.8762333 36.62884121-81.87623332 81.87623329 0 27.29207778 13.64603888 51.71130525 34.4742035 66.07555671l-54.58415554 198.22667011c-8.61855089 2.15463771-16.51888918 5.74570059-23.70101489 10.05497603l-118.50507454-68.94840701c2.8728503-7.90033831 4.30927544-16.51888918 4.30927545-25.85565263 0-45.24739209-36.62884121-81.8762333-81.8762333-81.87623329s-81.8762333 36.62884121-81.87623331 81.87623329c0 20.10995204 7.90033831 38.78347893 20.10995204 53.14773039l-90.49478418 150.82464031 48.12024239 28.72850291 91.21299674-152.26106544c4.30927544 0.71821257 8.61855089 1.43642515 12.92782632 1.43642516 15.08246403 0 29.44671548-4.30927544 41.65632922-11.49140117l119.94149966 69.66661957c-2.15463771 7.18212572-3.59106286 15.08246403-3.59106287 23.7010149 0 45.24739209 36.62884121 81.8762333 81.87623331 81.8762333 45.24739209 0 81.8762333-36.62884121 81.87623332-81.8762333 0-32.31956579-18.67352689-59.61164356-45.96560467-73.25768244l52.42951782-189.60811922c41.65632922-3.59106286 74.69410758-38.06526637 74.69410758-81.15802074 0-10.05497602-2.15463771-19.39173947-5.74570058-28.72850291l136.46038882-116.3504368z"
    p-id="20574"
  ></path>
  <path
    d="M860.33309783 975.2471095h-696.66619566c-63.20270641 0-114.91401164-51.71130525-114.91401167-114.91401167v-696.66619566c0-63.20270641 51.71130525-114.91401164 114.91401167-114.91401167h696.66619566c63.20270641 0 114.91401164 51.71130525 114.91401167 114.91401167v696.66619566c0 63.20270641-51.71130525 114.91401164-114.91401167 114.91401167z m-696.66619566-869.03721315c-31.60135321 0-57.45700584 25.85565262-57.45700582 57.45700582v696.66619566c0 31.60135321 25.85565262 57.45700584 57.45700582 57.45700582h696.66619566c31.60135321 0 57.45700584-25.85565262 57.45700582-57.45700582v-696.66619566c0-31.60135321-25.85565262-57.45700584-57.45700582-57.45700582h-696.66619566z"
    p-id="20575"
  ></path>
</svg>
