<svg
  t="1717049116723"
  class="icon"
  viewBox="0 0 1024 1024"
  version="1.1"
  xmlns="http://www.w3.org/2000/svg"
  p-id="25109"
  width="200"
  height="200"
>
  <path
    d="M928 831.744V832H96V352h832v352.672h64V128H32v768h960v-64.256h-64zM96 192h832v96H96V192z"
    p-id="25110"
  ></path>
  <path
    d="M224.256 448h256v64h-256z m0 96h256v64h-256z m0 96.672H384v64H224.256zM744.64 587.2l90.496 90.56-45.248 45.216-90.528-90.496z"
    p-id="25111"
  ></path>
  <path
    d="M765.728 480.128a112 112 0 1 0-158.4 158.4 112 112 0 0 0 158.4-158.4z m-113.152 113.152a48 48 0 1 1 67.84-67.872 48 48 0 0 1-67.84 67.872z"
    p-id="25112"
  ></path>
</svg>
