<svg
  t="1717049070248"
  class="icon"
  viewBox="0 0 1024 1024"
  version="1.1"
  xmlns="http://www.w3.org/2000/svg"
  p-id="23031"
  width="200"
  height="200"
>
  <path
    d="M882.6369 716.682729 304.950875 716.682729 304.950875 139.010007l194.503902 0L499.454778 62.326511 228.267379 62.326511l0 163.577542L64.67858 225.904053l0 731.064274 731.051995 0L795.730575 793.367249l163.588799 0L959.319373 522.178827l-76.683497 0L882.635877 716.682729zM719.047078 880.283808 141.3631 880.283808 141.3631 302.58755l86.905302 0 0 490.780723 490.779699 0L719.048101 880.283808z"
    p-id="23032"
  ></path>
  <path
    d="M634.687762 62.326511 634.687762 139.010007 828.418045 139.010007 566.691111 400.712381 620.909967 454.930213 882.6369 193.20328 882.6369 386.934586 959.320397 386.934586 959.320397 62.326511Z"
    p-id="23033"
  ></path>
</svg>
