<svg
  t="1717380338742"
  class="icon"
  viewBox="0 0 1024 1024"
  version="1.1"
  xmlns="http://www.w3.org/2000/svg"
  p-id="14984"
  width="200"
  height="200"
>
  <path
    d="M960 64H64a64 64 0 0 0-64 64v640a64 64 0 0 0 64 64h384v128H256v64h512v-64H576v-128h384a64 64 0 0 0 64-64V128a64 64 0 0 0-64-64z m0 704H64V128h896zM220.8 576a7.04 7.04 0 0 0 10.24 0l182.4-115.2 90.88 100.48a8.96 8.96 0 0 0 10.24 0l313.6-199.04a5.76 5.76 0 0 0 0-8.32L800.64 320a8.32 8.32 0 0 0-10.88 0L521.6 491.52 430.72 389.76a9.6 9.6 0 0 0-10.88 0L192 532.48a5.12 5.12 0 0 0 0 8.32z"
    p-id="14985"
  ></path>
</svg>
