<svg
  t="1717380062677"
  class="icon"
  viewBox="0 0 1024 1024"
  version="1.1"
  xmlns="http://www.w3.org/2000/svg"
  p-id="12977"
  width="200"
  height="200"
>
  <path
    d="M998.4 128C704-38.4 320-38.4 25.6 128c-6.4 6.4-12.8 19.2-12.8 32L32 384c0 19.2 19.2 32 32 32 19.2 0 32-19.2 32-32l-19.2-211.2C345.6 25.6 678.4 25.6 947.2 172.8l-38.4 448c-12.8 153.6-281.6 288-390.4 332.8C403.2 908.8 140.8 768 128 620.8c0-19.2-19.2-32-32-32-32 6.4-44.8 19.2-38.4 38.4 19.2 230.4 428.8 390.4 448 396.8h25.6c19.2-6.4 422.4-166.4 448-396.8l44.8-467.2c-12.8-12.8-19.2-25.6-25.6-32z"
    fill=""
    p-id="12978"
  ></path>
  <path
    d="M281.6 409.6l70.4 115.2c6.4 6.4 12.8 12.8 19.2 12.8 6.4 0 19.2 0 25.6-6.4L640 345.6v115.2c0 19.2 12.8 32 32 32s32-12.8 32-25.6v-192c0-19.2-12.8-32-32-32h-192c-12.8 0-32 19.2-32 32s12.8 32 32 32h102.4L384 460.8 320 345.6c-6.4-6.4-12.8-12.8-19.2-12.8-6.4 0-19.2 0-25.6 6.4L25.6 505.6c-12.8 6.4-19.2 25.6-6.4 44.8 6.4 6.4 19.2 12.8 25.6 12.8s12.8 0 19.2-6.4l217.6-147.2z"
    fill=""
    p-id="12979"
  ></path>
</svg>
