<svg
  t="1717040866221"
  class="icon"
  viewBox="0 0 1024 1024"
  version="1.1"
  xmlns="http://www.w3.org/2000/svg"
  p-id="29024"
  width="200"
  height="200"
>
  <path
    d="M1000.96 537.6H576c-12.8 0-23.04 12.8-23.04 23.04V819.2c0 15.36 12.8 23.04 23.04 23.04H998.4c12.8 0 23.04-10.24 23.04-23.04V560.64c2.56-12.8-10.24-23.04-20.48-23.04z m-23.04 232.96c0 17.92-12.8 28.16-28.16 28.16H627.2c-17.92 0-28.16-12.8-28.16-28.16v-158.72c0-17.92 12.8-28.16 28.16-28.16H947.2c17.92 0 28.16 12.8 28.16 28.16l2.56 158.72z m0 0"
    fill=""
    p-id="29025"
  ></path>
  <path
    d="M688.64 870.4h197.12v28.16h-197.12zM445.44 122.88H23.04c-12.8 0-23.04 12.8-23.04 25.6v258.56c0 15.36 10.24 23.04 23.04 23.04h422.4c15.36 0 23.04-10.24 23.04-23.04V148.48c0-15.36-10.24-25.6-23.04-25.6z m-23.04 232.96c0 17.92-12.8 28.16-28.16 28.16H74.24c-17.92 0-28.16-12.8-28.16-28.16V197.12c0-17.92 12.8-28.16 28.16-28.16h320c17.92 0 28.16 12.8 28.16 28.16v158.72z m0 0M138.24 458.24h197.12V486.4H138.24zM765.44 281.6H793.6v261.12h-28.16z"
    fill=""
    p-id="29026"
  ></path>
  <path
    d="M793.6 148.48c-43.52 0-76.8 35.84-76.8 76.8s35.84 76.8 76.8 76.8c43.52 0 76.8-35.84 76.8-76.8s-33.28-76.8-76.8-76.8z m0 122.88c-23.04 0-46.08-20.48-46.08-46.08C747.52 197.12 768 179.2 793.6 179.2s46.08 20.48 46.08 46.08-20.48 46.08-46.08 46.08z m0 0M291.84 716.8h261.12v28.16H291.84z"
    fill=""
    p-id="29027"
  ></path>
  <path
    d="M468.48 212.48h261.12v28.16H468.48zM227.84 486.4H256v199.68H227.84z"
    fill=""
    p-id="29028"
  ></path>
  <path
    d="M227.84 665.6c-43.52 0-76.8 35.84-76.8 76.8s35.84 76.8 76.8 76.8 76.8-35.84 76.8-76.8-33.28-76.8-76.8-76.8z m0 120.32c-23.04 0-46.08-17.92-46.08-43.52s20.48-46.08 46.08-46.08 46.08 20.48 46.08 46.08-20.48 43.52-46.08 43.52z m0 0"
    fill=""
    p-id="29029"
  ></path>
</svg>
