<svg viewBox="0 0 12 12" version="1.1" xmlns="http://www.w3.org/2000/svg">
  <g id="邮件通知模版" stroke="none" stroke-width="1" fill="none" fill-rule="evenodd">
    <g id="画板" transform="translate(-562.000000, -368.000000)" fill="#FFFFFF" fill-rule="nonzero">
      <g id="编组" transform="translate(554.000000, 364.000000)">
        <g id="告警记录" transform="translate(8.000000, 4.000000)">
          <rect id="矩形" opacity="0" x="0" y="0" width="12" height="12"></rect>
          <path
            d="M9.3,9.6 C9.63137085,9.6 9.9,9.86862915 9.9,10.2 C9.9,10.5313708 9.63137085,10.8 9.3,10.8 L2.1,10.8 C1.76862915,10.8 1.5,10.5313708 1.5,10.2 C1.5,9.86862915 1.76862915,9.6 2.1,9.6 L9.3,9.6 Z M5.7,3 C7.6882251,3 9.3,4.6117749 9.3,6.6 L9.3,9 L2.1,9 L2.1,6.6 C2.1,4.6117749 3.7117749,3 5.7,3 L5.7,3 Z M6.3,4.2 L4.5,6 L5.4,6 L5.1,7.8 L6.9,6 L6,5.9994 L6.3,4.2 Z M1.6188,2.724 L1.6668,2.7504 L2.5668,3.3504 C2.6962318,3.43643562 2.73852592,3.60707565 2.66425683,3.74359972 C2.58998774,3.88012378 2.4237495,3.93732221 2.2812,3.8754 L2.2332,3.8496 L1.3332,3.2496 C1.2037682,3.16356438 1.16147408,2.99292435 1.23574317,2.85640028 C1.31001226,2.71987622 1.4762505,2.66267779 1.6188,2.7246 L1.6188,2.724 Z M10.1496,2.8338 C10.2297794,2.95420106 10.2126221,3.11467206 10.1088,3.2154 L10.0668,3.2496 L9.1668,3.8496 L9.1188,3.8754 C8.98585585,3.93263976 8.83099834,3.88679373 8.75064146,3.76640558 C8.67028457,3.64601743 8.6873446,3.4854196 8.7912,3.3846 L8.8332,3.3504 L9.7332,2.7504 L9.7812,2.7246 C9.91425796,2.66726482 10.0692803,2.71321606 10.1496,2.8338 L10.1496,2.8338 Z M3.516,1.2918 L3.5496,1.3338 L4.1496,2.2338 C4.23508603,2.36287149 4.20831855,2.53579501 4.08780948,2.63297975 C3.9673004,2.73016449 3.79263121,2.71968989 3.6846,2.6088 L3.6504,2.5668 L3.0504,1.6668 C2.96170543,1.53760336 2.98739458,1.36190695 3.109366,1.26351248 C3.23133742,1.16511801 3.40849176,1.17718037 3.516,1.2912 L3.516,1.2918 Z M8.2662,1.2504 C8.38678394,1.33071972 8.43273518,1.48574204 8.3754,1.6188 L8.3496,1.6668 L7.7496,2.5668 L7.716,2.6088 C7.61554722,2.71448875 7.45364817,2.73264461 7.33228049,2.65183149 C7.21091282,2.57101838 7.16522708,2.41464143 7.224,2.2812 L7.2504,2.2332 L7.8504,1.3332 L7.8846,1.2912 C7.98532794,1.18737787 8.14579894,1.1702206 8.2662,1.2504 L8.2662,1.2504 Z M5.7,0.599999983 C5.84489539,0.599951695 5.96911884,0.703471237 5.9952,0.846 L6.00000052,0.9 L6.00000052,2.09999998 C6.00028606,2.25539345 5.88186502,2.38528461 5.72710692,2.39932516 C5.57234882,2.41336572 5.4324848,2.30690767 5.4048,2.154 L5.4,2.09999998 L5.4,0.9 C5.4,0.734314575 5.53431458,0.599999983 5.7,0.599999983 L5.7,0.599999983 Z"
            id="形状"
          ></path>
        </g>
      </g>
    </g>
  </g>
</svg>
