<svg width="64" height="64" viewBox="0 0 64 64" fill="none" xmlns="http://www.w3.org/2000/svg">
  <rect opacity="0.01" width="64" height="64" fill="black" />
  <path
    opacity="0.2"
    d="M51.3599 29.968C51.3599 29.968 50.9679 17.068 40.4599 14.504C29.9519 11.94 24.8879 23.012 24.7839 23.328C24.6799 23.644 24.1639 23.5 24.1639 23.5C23.3239 22.704 19.6199 20.876 15.7279 23.22C11.8399 25.564 13.2479 30.016 13.2479 30.016C13.2479 30.016 7.48394 29.548 4.52794 38.448C1.57594 47.356 11.9319 49.88 11.9319 49.88H29.3159V40.404H25.8359H25.5319H25.2959V40.388C25.0959 40.388 24.9359 40.228 24.9359 40.024C24.9359 39.904 24.9999 39.8 25.0959 39.732L32.2199 32.24C32.3199 32.128 32.4599 32.052 32.6239 32.052C32.7919 32.052 32.9399 32.136 33.0399 32.26L40.1119 39.692C40.1239 39.7 40.1359 39.712 40.1479 39.724L40.2159 39.796H40.1919C40.2279 39.86 40.2519 39.916 40.2519 39.992C40.2519 40.216 40.0719 40.4 39.8439 40.4C39.8359 40.4 39.8359 40.392 39.8279 40.392V40.408H35.9959V49.884H51.7759C51.7759 49.884 59.2999 48 59.9639 40.232C60.6359 32.464 51.3599 29.968 51.3599 29.968Z"
    fill="#379E0E"
  />
</svg>
