<svg
  t="1717048698908"
  class="icon"
  viewBox="0 0 1024 1024"
  version="1.1"
  xmlns="http://www.w3.org/2000/svg"
  p-id="12986"
  width="200"
  height="200"
>
  <path
    d="M486.08 738.176a208.096 208.096 0 0 0 403.84 0H486.08z m-5.632-64h415.104a208 208 0 0 0-415.104 0z m421.184 182.208l112.992 112.96a32 32 0 0 1-45.248 45.28l-112.992-112.992a272 272 0 1 1 45.248-45.248zM518.912 960a32 32 0 0 1 0 64H131.84C59.296 1024 0 966.976 0 896V128c0-70.976 59.296-128 131.84-128h632.32C836.704 0 896 57.024 896 128v282.4a32 32 0 1 1-64 0V128c0-35.072-30.08-64-67.84-64H131.84C94.08 64 64 92.928 64 128v768c0 35.072 30.08 64 67.84 64h387.104zM279.648 160a24.96 24.96 0 0 1 24.896 26.592l-4.768 71.872 65.344-26.944a24.736 24.736 0 1 1 15.744 46.72l-69.12 18.304 47.648 52.8a24.64 24.64 0 0 1-3.04 35.872 24.576 24.576 0 0 1-35.52-5.44L279.616 319.392l-41.184 60.384a24.576 24.576 0 0 1-35.52 5.44 24.64 24.64 0 0 1-3.04-35.872l47.68-52.8-69.152-18.272a24.704 24.704 0 1 1 15.744-46.72l65.344 26.912-4.768-71.872A24.96 24.96 0 0 1 279.616 160z m295.136 0a24.96 24.96 0 0 1 24.896 26.592l-4.768 71.872 65.344-26.944a24.736 24.736 0 1 1 15.744 46.72l-69.12 18.304 47.648 52.8a24.64 24.64 0 0 1-3.04 35.872 24.576 24.576 0 0 1-35.52-5.44l-41.184-60.384-41.184 60.384a24.576 24.576 0 0 1-35.52 5.44 24.64 24.64 0 0 1-3.04-35.872l47.648-52.8-69.12-18.272a24.704 24.704 0 1 1 15.744-46.72l65.344 26.912-4.768-71.872A24.96 24.96 0 0 1 574.752 160z"
    p-id="12987"
  ></path>
</svg>
