<svg
  t="1717048101912"
  class="icon"
  viewBox="0 0 1024 1024"
  version="1.1"
  xmlns="http://www.w3.org/2000/svg"
  p-id="6800"
  width="200"
  height="200"
>
  <path
    d="M787.456 0c-134.4 0-237.056 109.056-237.056 237.056 0 51.2 19.2 102.4 51.2 140.8l-335.0016 335.0016a51.2 51.2 0 0 0 0 72.3968L358.4 877.056l51.2-51.2-89.6-76.8 115.2-115.2 89.6 89.6 51.2-51.2L486.4 588.8l153.6-159.744c38.4 32 89.6 44.544 140.8 44.544 134.4 0 237.056-108.544 237.056-236.544 6.4-128-102.4-237.056-230.4-237.056z m0 409.6A172.0832 172.0832 0 0 1 614.4 237.056a172.544 172.544 0 0 1 173.056-173.056 172.032 172.032 0 0 1 172.544 173.056c0 96-82.944 172.544-172.544 172.544z"
    p-id="6801"
  ></path>
  <path
    d="M716.8 960H121.6a51.2 51.2 0 0 1-51.2-51.2V307.2a51.2 51.2 0 0 1 51.2-51.2H384V192H51.2a51.2 51.2 0 0 0-51.2 51.2V972.8a51.2 51.2 0 0 0 51.2 51.2h729.6a51.2 51.2 0 0 0 51.2-51.2v-332.8H768v268.8a51.2 51.2 0 0 1-51.2 51.2z"
    p-id="6802"
  ></path>
</svg>
