<svg
  t="1717049324082"
  class="icon"
  viewBox="0 0 1260 1024"
  version="1.1"
  xmlns="http://www.w3.org/2000/svg"
  p-id="31737"
  width="200"
  height="200"
>
  <path
    d="M984.615385 322.953846l47.261538-55.138461c118.153846 102.4 189.046154 252.061538 189.046154 409.6 0 110.276923-31.507692 220.553846-94.523077 307.2l-7.876923 7.876923c-15.753846 7.876923-39.384615 7.876923-47.261539-7.876923-7.876923-7.876923-7.876923-23.630769 0-31.507693 55.138462-78.769231 86.646154-173.292308 86.646154-267.815384-7.876923-141.784615-70.892308-275.692308-173.292307-362.338462zM779.815385 212.676923c-47.261538-15.753846-94.523077-23.630769-149.661539-23.630769-283.569231 0-519.876923 220.553846-519.876923 496.246154 0 86.646154 23.630769 173.292308 63.015385 244.184615 7.876923 7.876923 7.876923 15.753846 15.753846 23.630769l7.876923 7.876923c7.876923 15.753846 7.876923 39.384615-15.753846 47.261539s-39.384615 7.876923-47.261539-7.876923v-7.876923c-7.876923-7.876923-7.876923-15.753846-15.753846-23.63077-47.261538-78.769231-78.769231-173.292308-78.769231-275.692307 0-315.076923 267.815385-567.138462 590.769231-567.138462 63.015385 0 118.153846 7.876923 173.292308 23.630769l-23.630769 63.015385z m-220.553847 590.769231c-78.769231-47.261538-47.261538-94.523077 7.876924-165.415385S1008.246154 63.015385 1008.246154 63.015385 756.184615 598.646154 701.046154 708.923077s-63.015385 133.907692-141.784616 94.523077z"
    p-id="31738"
  ></path>
</svg>
