<svg
  t="1717049347513"
  class="icon"
  viewBox="0 0 1024 1024"
  version="1.1"
  xmlns="http://www.w3.org/2000/svg"
  p-id="33631"
  width="200"
  height="200"
>
  <path
    d="M511.9 63.9C265 63.9 64.8 264.1 64.8 511.1 64.8 758 265 958.2 511.9 958.2 758.8 958.2 959 758 959 511.1c0-247-200.2-447.2-447.1-447.2zM782.8 782c-35.2 35.2-76.2 62.8-121.8 82.1-47.2 20-97.4 30.1-149.1 30.1S410 884.1 362.8 864.1c-45.6-19.3-86.6-46.9-121.8-82.1-35.2-35.2-62.8-76.2-82.1-121.8-20-47.2-30.1-97.4-30.1-149.1 0-51.7 10.1-101.9 30.1-149.1 19.3-45.6 46.9-86.6 82.1-121.8 35.2-35.2 76.2-62.8 121.8-82.1 47.2-20 97.4-30.1 149.1-30.1s101.9 10.1 149.1 30c45.6 19.3 86.6 46.9 121.8 82.1 35.2 35.2 62.8 76.2 82.1 121.8 20 47.2 30.1 97.4 30.1 149.1 0 51.7-10.1 101.9-30.1 149.1-19.3 45.7-46.9 86.7-82.1 121.9z"
    p-id="33632"
  ></path>
  <path
    d="M530.6 268.5c-6.2-6.2-14.4-9.4-22.6-9.4-8.2 0-16.4 3.1-22.6 9.4l-192 191.8c-12.5 12.5-12.5 32.7 0 45.3 12.5 12.5 32.8 12.5 45.3 0l137.2-137.2V624c0 17.7 14.3 32 32 32s32-14.3 32-32V368.4l137.4 137.2c12.5 12.5 32.8 12.5 45.3 0s12.5-32.8 0-45.3l-192-191.8z"
    p-id="33633"
  ></path>
  <path d="M508 737.6m-32 0a32 32 0 1 0 64 0 32 32 0 1 0-64 0Z" p-id="33634"></path>
</svg>
