<svg
  t="1717049206054"
  class="icon"
  viewBox="0 0 1024 1024"
  version="1.1"
  xmlns="http://www.w3.org/2000/svg"
  p-id="26917"
  width="200"
  height="200"
>
  <path
    d="M976.83733 988.524379c0-0.016342-0.00454-0.022698-0.009987-0.037224-0.009079-4.651215-0.953304-9.073637-2.593894-13.145607C944.326036 809.28055 827.865894 673.477418 672.857774 616.9238c100.584455-56.412892 168.650352-163.898359 168.650352-287.407503C841.509034 147.523322 693.985712 0 511.992737 0c-181.992067 0-329.516297 147.523322-329.516297 329.517205 0 123.508236 68.067713 230.995518 168.65126 287.408411C195.354213 673.757054 78.462814 810.605189 49.269018 977.777466c-0.802591 2.502196-1.314651 5.099722-1.539813 7.809829-0.15616 0.98962-0.431257 1.9402-0.578338 2.93436l0.284175 0 0 0c0 19.590849 15.879319 35.475615 35.477431 35.475615 19.592665 0 35.477431-15.882951 35.477431-35.475615l0 0 0.118936 0c33.391965-187.218896 196.635723-329.51085 393.459382-329.522653 0.009079 0 0.019066 0 0.030869 0 0.013619 0 0.019066 0 0.032685 0 196.82366 0.014527 360.071049 142.303757 393.458475 329.522653l0.43852 0c0 0.003632 0 0.012711 0 0.018158 0 19.583586 15.874779 35.460181 35.458365 35.460181 19.584493 0 35.461089-15.875687 35.461089-35.460181C976.83733 988.533458 976.83279 988.529826 976.83733 988.524379L976.83733 988.524379zM253.118073 329.522653c0-142.981056 115.890884-258.91098 258.873756-258.91098 142.980148 0 258.874664 115.929016 258.874664 258.91098 0 142.964714-115.860015 258.842887-258.814742 258.869216-0.018158 0-0.042672-0.005447-0.058106-0.005447-0.019066 0-0.041764 0.005447-0.059922 0.005447C368.97718 588.361 253.118073 472.481919 253.118073 329.522653z"
    p-id="26918"
  ></path>
</svg>
